<svg xmlns="http://www.w3.org/2000/svg" viewBox="0 0 281.58 59.04"><title>sjm-logo</title><g id="21192229-e4c2-4515-8237-763f446ca94c" data-name="Layer 2"><g id="b7353bf0-c565-4d28-b000-1ba47013b0c5" data-name="Layer 1"><path d="M59,29.52A29.52,29.52,0,1,1,29.52,0,29.51,29.51,0,0,1,59,29.52" fill="#d71f39"/><path d="M45.81,8.9a2.8,2.8,0,0,0-2.36-1.17h-24s16.14-.08,21.57,4.48a10.78,10.78,0,0,1,1.87,2.08c.48.59,2.19.52,3-.64a5.71,5.71,0,0,0-.08-4.75" fill="#fff"/><path d="M37.65,18a.63.63,0,0,1,.62-.53h4.51A4.76,4.76,0,0,1,47.23,21a5,5,0,0,1,.07,1.42.61.61,0,0,1-.61.5h-.78A1.4,1.4,0,0,0,44.56,24L40.84,40.39a16.82,16.82,0,0,1-.93,2.55,10.71,10.71,0,0,1-5.22,4.43,11.24,11.24,0,0,1-2.88.87H6.68s-.48-.58-1-1.29a16.44,16.44,0,0,1-1.14-1.66l23.34,0a1.14,1.14,0,0,0,.76-.3,22,22,0,0,0,4.76-6.2C34.89,35.61,37.19,21,37.65,18" fill="#fff"/><path d="M11,33.69S8.62,36,10.07,42a.72.72,0,0,0,.71.56H26.87s2.46-1.5,4.12-5.86a24.32,24.32,0,0,0,1.52-7.47.7.7,0,0,0-.71-.73h-17c-.5,0-.64-.2-.61-.55A8.24,8.24,0,0,1,15,25.24c.22-.54,1-.53,1.24-.53l15.28,0a1,1,0,0,1,1,.85L32.66,27s2.89-4.72,1.52-9.32c0,0-12.5-.31-14.48-.22-3.53.17-3.94,3.75-4.94,7.47-.63,2.36-1.19,4.67-1.47,6.13a.9.9,0,0,0,.88,1.07l17.16.18c.48,0,.65.16.62.43l-.65,2.58a.81.81,0,0,1-.79.35H12.74a1.44,1.44,0,0,1-1.3-.88Z" fill="#fff"/><path d="M81.45,45.55,80.23,42.1H74.84l-1.22,3.45h-.75L77.14,33.6h.79L82.2,45.55ZM77.53,34.46l-2.49,7h5Z" fill="#585858"/><path d="M89.29,45.55V44.31a2.88,2.88,0,0,1-2.58,1.46c-2,0-2.81-1.58-2.81-3.57V37h.7v5.36c0,1.71.8,2.75,2.17,2.75a2.59,2.59,0,0,0,2.52-2.89V37H90v8.52Z" fill="#585858"/><path d="M96,45.51a2,2,0,0,1-1,.26c-1,0-1.76-.77-1.76-2.09v-6H91.86V37h1.37V33.6h.7V37h2v.65h-2v6.08a1.23,1.23,0,0,0,1.16,1.35,1.37,1.37,0,0,0,.86-.33Z" fill="#585858"/><path d="M103.47,45.55V40.19c0-1.71-.82-2.75-2.19-2.75a2.58,2.58,0,0,0-2.5,2.89v5.22h-.7V33.6h.7v4.67a2.87,2.87,0,0,1,2.58-1.46c2,0,2.81,1.58,2.81,3.57v5.17Z" fill="#585858"/><path d="M106.24,41.28c0-2.67,1.27-4.47,3.52-4.47s3.52,1.8,3.52,4.47-1.28,4.49-3.52,4.49S106.24,44,106.24,41.28Zm6.31,0c0-2.26-1-3.86-2.79-3.86S107,39,107,41.28s1,3.88,2.79,3.88S112.55,43.54,112.55,41.28Z" fill="#585858"/><path d="M115.44,45.55V37h.69v1.24a2.85,2.85,0,0,1,2.55-1.46,3.46,3.46,0,0,1,1.07.19l-.27.66a2.24,2.24,0,0,0-.88-.19c-1.17,0-2.47.89-2.47,2.91v5.17Z" fill="#585858"/><path d="M121.49,34a.61.61,0,1,1,.61.61A.61.61,0,0,1,121.49,34Zm.25,11.56V37h.7v8.52Z" fill="#585858"/><path d="M124.6,45.55V45l4.78-7.31H125V37h5.24v.55L125.4,44.9h4.86v.65Z" fill="#585858"/><path d="M138.22,44.17a3.41,3.41,0,0,1-2.93,1.6c-2.07,0-3.47-1.82-3.47-4.49s1.33-4.47,3.4-4.47,3.32,1.8,3.32,4.47v.15h-6c.06,2.18,1.18,3.73,2.74,3.73a2.84,2.84,0,0,0,2.38-1.38Zm-.4-3.35c-.13-2-1.12-3.4-2.6-3.4s-2.51,1.38-2.65,3.4Z" fill="#585858"/><path d="M146,45.55V44.17a2.91,2.91,0,0,1-2.66,1.6c-1.87,0-3.16-2-3.16-4.49s1.24-4.47,3.1-4.47A3,3,0,0,1,146,38.54V33.6h.69V45.55Zm0-5.36c-.34-1.58-1.36-2.77-2.62-2.77-1.48,0-2.47,1.74-2.47,3.86s1,3.88,2.52,3.88A3,3,0,0,0,146,42.79Z" fill="#585858"/><path d="M156,45.55V34.24h-3.63V33.6h8v.63h-3.65V45.55Z" fill="#585858"/><path d="M159.59,41.28c0-2.67,1.28-4.47,3.52-4.47s3.52,1.8,3.52,4.47-1.27,4.49-3.52,4.49S159.59,44,159.59,41.28Zm6.31,0c0-2.26-1-3.86-2.79-3.86s-2.79,1.6-2.79,3.86,1,3.88,2.79,3.88S165.9,43.54,165.9,41.28Z" fill="#585858"/><path d="M170.84,45.58l-3-8.55h.75l2.63,7.72L173.94,37h.74L170.57,48a1.53,1.53,0,0,1-1.48,1.1,1.69,1.69,0,0,1-.59-.13v-.58a1.59,1.59,0,0,0,.58.14c.44,0,.74-.26.93-.77Z" fill="#585858"/><path d="M175.82,41.28c0-2.67,1.28-4.47,3.52-4.47s3.52,1.8,3.52,4.47-1.27,4.49-3.52,4.49S175.82,44,175.82,41.28Zm6.31,0c0-2.26-1-3.86-2.79-3.86s-2.79,1.6-2.79,3.86,1,3.88,2.79,3.88S182.13,43.54,182.13,41.28Z" fill="#585858"/><path d="M188.1,45.51a2,2,0,0,1-1,.26c-1,0-1.75-.77-1.75-2.09v-6H184V37h1.38V33.6h.69V37h2v.65h-2v6.08a1.23,1.23,0,0,0,1.16,1.35,1.39,1.39,0,0,0,.87-.33Z" fill="#585858"/><path d="M196.16,45.55c-.67,0-.92-.33-.92-.95v-.29a4,4,0,0,1-3.11,1.42,2.37,2.37,0,0,1-2.64-2.44c0-2,1.72-2.93,3.57-2.93a5.5,5.5,0,0,1,2.18.46V39.65a2.2,2.2,0,0,0-2.31-2.21,2.85,2.85,0,0,0-2.4,1.41l-.54-.41a3.46,3.46,0,0,1,3-1.63,2.74,2.74,0,0,1,2.92,3v4.86c0,.17.11.29.33.29h.27v.63Zm-.92-4a4,4,0,0,0-2.13-.56c-1.58,0-2.89.85-2.89,2.23a1.81,1.81,0,0,0,2,1.89,3.94,3.94,0,0,0,3.05-1.7Z" fill="#585858"/><path d="M203.44,45.55V33.6h3.74c3,0,4.79,2.67,4.79,6s-1.82,6-4.79,6Zm3.74-.65c2.48,0,4-2.38,4-5.34s-1.56-5.32-4-5.32h-3V44.9Z" fill="#585858"/><path d="M220.1,44.17a3.4,3.4,0,0,1-2.92,1.6c-2.08,0-3.47-1.82-3.47-4.49s1.32-4.47,3.4-4.47,3.31,1.8,3.31,4.47v.15h-6c.05,2.18,1.17,3.73,2.74,3.73a2.82,2.82,0,0,0,2.37-1.38Zm-.39-3.35c-.14-2-1.12-3.4-2.6-3.4s-2.52,1.38-2.65,3.4Z" fill="#585858"/><path d="M228.77,45.55c-.67,0-.92-.33-.92-.95v-.29a4,4,0,0,1-3.11,1.42,2.37,2.37,0,0,1-2.64-2.44c0-2,1.72-2.93,3.57-2.93a5.47,5.47,0,0,1,2.18.46V39.65a2.2,2.2,0,0,0-2.31-2.21,2.85,2.85,0,0,0-2.4,1.41l-.54-.41a3.47,3.47,0,0,1,3-1.63,2.75,2.75,0,0,1,2.93,3v4.86c0,.17.1.29.32.29h.27v.63Zm-.92-4a4,4,0,0,0-2.13-.56c-1.58,0-2.88.85-2.88,2.23a1.81,1.81,0,0,0,2,1.88,3.92,3.92,0,0,0,3-1.69Z" fill="#585858"/><path d="M231.27,45.55V33.6H232V45.55Z" fill="#585858"/><path d="M240.51,44.17a3.39,3.39,0,0,1-2.92,1.6c-2.07,0-3.47-1.82-3.47-4.49s1.33-4.47,3.4-4.47,3.32,1.8,3.32,4.47v.15h-6c.06,2.18,1.18,3.73,2.74,3.73A2.84,2.84,0,0,0,240,43.78Zm-.39-3.35c-.13-2-1.12-3.4-2.6-3.4s-2.51,1.38-2.65,3.4Z" fill="#585858"/><path d="M243,45.55V37h.69v1.24a2.85,2.85,0,0,1,2.55-1.46,3.41,3.41,0,0,1,1.07.19l-.27.66a2.2,2.2,0,0,0-.88-.19c-1.17,0-2.47.89-2.47,2.91v5.17Z" fill="#585858"/><path d="M74.7,20.92a3,3,0,0,0,3,3,2.9,2.9,0,0,0,3-2.82c0-2.08-1.78-2.54-3.5-3.1-1.2-.36-3.78-1.12-3.78-3.92,0-2.62,2.14-4.08,4.4-4.08a4,4,0,0,1,4.2,3.82H80.3a2.67,2.67,0,0,0-5.32.12c0,1.8,1.44,2.24,3.68,3,1.4.54,3.6,1.32,3.6,4a4.31,4.31,0,0,1-4.58,4.34A4.37,4.37,0,0,1,73,20.92Z"/><path d="M85.78,10.24H94V11.7H87.42v5.14h6.52V18.3H87.42v5.28H94V25h-8.2Z"/><path d="M100.9,11.7H97.26V10.24h9V11.7h-3.66V25H100.9Z"/><path d="M109.84,10.24h1.64V25h-1.64Z"/><path d="M116.92,25h-1.78l6.18-14.8h1.6L129,25h-1.8l-1.72-4.16h-6.9Zm5.14-12.94-2.94,7.42H125Z"/><path d="M139.37,20.26a7.13,7.13,0,0,1-.4,2.8,3.86,3.86,0,0,1-1.22,1.46,4.57,4.57,0,0,1-2.56.78,4,4,0,0,1-4-3,3.94,3.94,0,0,1-.12-.7h1.78a1.77,1.77,0,0,0,0,.3,2.49,2.49,0,0,0,2.38,2,2.22,2.22,0,0,0,2.18-1.38,5.16,5.16,0,0,0,.26-1.88V10.24h1.66Z"/><path d="M144.27,25h-1.78l6.18-14.8h1.6L156.4,25h-1.8l-1.73-4.16H146Zm5.14-12.94-2.94,7.42h5.9Z"/><path d="M163.07,19.84l-4.76-9.6h1.8l3.8,8,3.78-8h1.81l-4.77,9.6V25h-1.66Z"/><path d="M173.19,25h-1.78l6.19-14.8h1.59L185.32,25h-1.8l-1.72-4.16h-6.91Zm5.14-12.94-2.94,7.42h5.91Z"/><path d="M198.84,12.32h-3.4V10.24h9.16v2.08h-3.4V25h-2.36Z" fill="#d91f37"/><path d="M206.36,17.72a7.75,7.75,0,1,1,7.72,7.6,7.59,7.59,0,0,1-7.72-7.58Zm2.34-.08a5.4,5.4,0,1,0,10.8,0,5.4,5.4,0,1,0-10.8,0Z" fill="#d91f37"/><path d="M229,19.78l-4.64-9.54h2.56l3.26,7.32,3.26-7.32H236l-4.64,9.54V25H229Z" fill="#d91f37"/><path d="M238.48,17.72a7.75,7.75,0,1,1,7.72,7.6,7.59,7.59,0,0,1-7.72-7.58Zm2.34-.08a5.4,5.4,0,1,0,10.8,0,5.4,5.4,0,1,0-10.8,0Z" fill="#d91f37"/><path d="M259.8,12.32h-3.4V10.24h9.16v2.08h-3.4V25H259.8Z" fill="#d91f37"/><path d="M269.94,25h-2.56l6.08-14.8h2.14l6,14.8H279l-1.4-3.5H271.3ZM274.44,13l-2.5,6.66h5Z" fill="#d91f37"/></g></g></svg>